HIERARCHY
ROOT Hips
{
    OFFSET   0.000000   0.000000   0.000000
    CHANNELS 6 Xposition Yposition Zposition Zrotation Xrotation Yrotation
    JOINT Chest
    {
        OFFSET   0.000000   8.007230   0.000000
        CHANNELS 3 Zrotation Xrotation Yrotation
        JOINT Chest2
        {
            OFFSET   0.000000  22.077100   0.000000
            CHANNELS 3 Zrotation Xrotation Yrotation
            JOINT Neck
            {
                OFFSET   0.000000  23.254800  -0.000021
                CHANNELS 3 Zrotation Xrotation Yrotation
                JOINT Head
                {
                    OFFSET   0.000000  14.370000   1.956610
                    CHANNELS 3 Zrotation Xrotation Yrotation
                    End Site
                    {
                        OFFSET   0.000000  19.566000   0.000000
                    }
                }
            }
            JOINT LeftCollar
            {
                OFFSET   3.911900  19.017000  -0.467063
                CHANNELS 3 Zrotation Xrotation Yrotation
                JOINT LeftShoulder
                {
                    OFFSET  10.383700   0.000000   0.000000
                    CHANNELS 3 Zrotation Xrotation Yrotation
                    JOINT LeftElbow
                    {
                        OFFSET  26.662100   0.001529   0.000325
                        CHANNELS 3 Zrotation Xrotation Yrotation
                        JOINT LeftWrist
                        {
                            OFFSET  28.869000  -0.000011  -0.000096
                            CHANNELS 3 Zrotation Xrotation Yrotation
                            JOINT LeftFinger0
                            {
                                OFFSET   2.044650  -2.323460   3.252850
                                CHANNELS 3 Zrotation Xrotation Yrotation
                                JOINT LeftFinger01
                                {
                                    OFFSET   3.088130   0.000000   0.000000
                                    CHANNELS 3 Zrotation Xrotation Yrotation
                                    JOINT LeftFinger02
                                    {
                                        OFFSET   2.639460   0.000000   0.000000
                                        CHANNELS 3 Zrotation Xrotation Yrotation
                                        End Site
                                        {
                                            OFFSET   2.582190   0.000000   0.000000
                                        }
                                    }
                                }
                            }
                            JOINT LeftFinger1
                            {
                                OFFSET   8.364480   0.000000   3.252850
                                CHANNELS 3 Zrotation Xrotation Yrotation
                                JOINT LeftFinger11
                                {
                                    OFFSET   4.646930   0.000000   0.000000
                                    CHANNELS 3 Zrotation Xrotation Yrotation
                                    JOINT LeftFinger12
                                    {
                                        OFFSET   2.323460   0.000000   0.000000
                                        CHANNELS 3 Zrotation Xrotation Yrotation
                                        End Site
                                        {
                                            OFFSET   2.273050   0.000000   0.000000
                                        }
                                    }
                                }
                            }
                            JOINT LeftFinger2
                            {
                                OFFSET   8.364480   0.000016   1.078090
                                CHANNELS 3 Zrotation Xrotation Yrotation
                                JOINT LeftFinger21
                                {
                                    OFFSET   5.111620   0.000000   0.000000
                                    CHANNELS 3 Zrotation Xrotation Yrotation
                                    JOINT LeftFinger22
                                    {
                                        OFFSET   2.788160   0.000017   0.000000
                                        CHANNELS 3 Zrotation Xrotation Yrotation
                                        End Site
                                        {
                                            OFFSET   2.727660   0.000000   0.000000
                                        }
                                    }
                                }
                            }
                            JOINT LeftFinger3
                            {
                                OFFSET   7.899780   0.000015  -1.078090
                                CHANNELS 3 Zrotation Xrotation Yrotation
                                JOINT LeftFinger31
                                {
                                    OFFSET   4.646920   0.000000   0.000000
                                    CHANNELS 3 Zrotation Xrotation Yrotation
                                    JOINT LeftFinger32
                                    {
                                        OFFSET   2.323470   0.000000   0.000000
                                        CHANNELS 3 Zrotation Xrotation Yrotation
                                        End Site
                                        {
                                            OFFSET   2.273050   0.000000   0.000000
                                        }
                                    }
                                }
                            }
                            JOINT LeftFinger4
                            {
                                OFFSET   7.435090   0.000000  -3.252850
                                CHANNELS 3 Zrotation Xrotation Yrotation
                                JOINT LeftFinger41
                                {
                                    OFFSET   3.717550   0.000000   0.000000
                                    CHANNELS 3 Zrotation Xrotation Yrotation
                                    JOINT LeftFinger42
                                    {
                                        OFFSET   1.858760   0.000000   0.000000
                                        CHANNELS 3 Zrotation Xrotation Yrotation
                                        End Site
                                        {
                                            OFFSET   1.818440   0.000000   0.000000
                                        }
                                    }
                                }
                            }
                        }
                    }
                }
            }
            JOINT RightCollar
            {
                OFFSET  -3.911900  19.017000  -0.467062
                CHANNELS 3 Zrotation Xrotation Yrotation
                JOINT RightShoulder
                {
                    OFFSET -10.383700   0.000015   0.000000
                    CHANNELS 3 Zrotation Xrotation Yrotation
                    JOINT RightElbow
                    {
                        OFFSET -26.662100   0.001341   0.000385
                        CHANNELS 3 Zrotation Xrotation Yrotation
                        JOINT RightWrist
                        {
                            OFFSET -28.869000   0.000025  -0.000080
                            CHANNELS 3 Zrotation Xrotation Yrotation
                            JOINT RightFinger0
                            {
                                OFFSET  -2.044650  -2.323490   3.252850
                                CHANNELS 3 Zrotation Xrotation Yrotation
                                JOINT RightFinger01
                                {
                                    OFFSET  -3.088130   0.000000   0.000000
                                    CHANNELS 3 Zrotation Xrotation Yrotation
                                    JOINT RightFinger02
                                    {
                                        OFFSET  -2.639460   0.000000   0.000000
                                        CHANNELS 3 Zrotation Xrotation Yrotation
                                        End Site
                                        {
                                            OFFSET  -2.582190   0.000000   0.000000
                                        }
                                    }
                                }
                            }
                            JOINT RightFinger1
                            {
                                OFFSET  -8.364480   0.000000   3.252850
                                CHANNELS 3 Zrotation Xrotation Yrotation
                                JOINT RightFinger11
                                {
                                    OFFSET  -4.646930   0.000000   0.000000
                                    CHANNELS 3 Zrotation Xrotation Yrotation
                                    JOINT RightFinger12
                                    {
                                        OFFSET  -2.323470   0.000000   0.000000
                                        CHANNELS 3 Zrotation Xrotation Yrotation
                                        End Site
                                        {
                                            OFFSET  -2.273050   0.000000   0.000000
                                        }
                                    }
                                }
                            }
                            JOINT RightFinger2
                            {
                                OFFSET  -8.364480   0.000000   1.078090
                                CHANNELS 3 Zrotation Xrotation Yrotation
                                JOINT RightFinger21
                                {
                                    OFFSET  -5.111610   0.000000   0.000000
                                    CHANNELS 3 Zrotation Xrotation Yrotation
                                    JOINT RightFinger22
                                    {
                                        OFFSET  -2.788160   0.000000   0.000000
                                        CHANNELS 3 Zrotation Xrotation Yrotation
                                        End Site
                                        {
                                            OFFSET  -2.727660   0.000000   0.000000
                                        }
                                    }
                                }
                            }
                            JOINT RightFinger3
                            {
                                OFFSET  -7.899780   0.000000  -1.078090
                                CHANNELS 3 Zrotation Xrotation Yrotation
                                JOINT RightFinger31
                                {
                                    OFFSET  -4.646920   0.000000   0.000000
                                    CHANNELS 3 Zrotation Xrotation Yrotation
                                    JOINT RightFinger32
                                    {
                                        OFFSET  -2.323470   0.000000   0.000000
                                        CHANNELS 3 Zrotation Xrotation Yrotation
                                        End Site
                                        {
                                            OFFSET  -2.273050   0.000000   0.000000
                                        }
                                    }
                                }
                            }
                            JOINT RightFinger4
                            {
                                OFFSET  -7.435090   0.000000  -3.252850
                                CHANNELS 3 Zrotation Xrotation Yrotation
                                JOINT RightFinger41
                                {
                                    OFFSET  -3.717550   0.000000   0.000000
                                    CHANNELS 3 Zrotation Xrotation Yrotation
                                    JOINT RightFinger42
                                    {
                                        OFFSET  -1.858770   0.000000   0.000000
                                        CHANNELS 3 Zrotation Xrotation Yrotation
                                        End Site
                                        {
                                            OFFSET  -1.818440   0.000000   0.000000
                                        }
                                    }
                                }
                            }
                        }
                    }
                }
            }
        }
    }
    JOINT LeftHip
    {
        OFFSET   9.783010   0.000000   0.000000
        CHANNELS 3 Zrotation Xrotation Yrotation
        JOINT LeftKnee
        {
            OFFSET   0.000070 -41.789100   0.000028
            CHANNELS 3 Zrotation Xrotation Yrotation
            JOINT LeftAnkle
            {
                OFFSET   0.000087 -41.133200  -0.000100
                CHANNELS 3 Zrotation Xrotation Yrotation
                JOINT LeftToe
                {
                    OFFSET   0.000000  -6.358960  14.674500
                    CHANNELS 3 Zrotation Xrotation Yrotation
                    End Site
                    {
                        OFFSET   0.000000   0.000000   3.913200
                    }
                }
            }
        }
    }
    JOINT RightHip
    {
        OFFSET  -9.783020   0.000000   0.000000
        CHANNELS 3 Zrotation Xrotation Yrotation
        JOINT RightKnee
        {
            OFFSET   0.000044 -41.789100  -0.000870
            CHANNELS 3 Zrotation Xrotation Yrotation
            JOINT RightAnkle
            {
                OFFSET  -0.000090 -41.133200  -0.000245
                CHANNELS 3 Zrotation Xrotation Yrotation
                JOINT RightToe
                {
                    OFFSET   0.000000  -6.358960  14.674500
                    CHANNELS 3 Zrotation Xrotation Yrotation
                    End Site
                    {
                        OFFSET   0.000000   0.000000   3.913200
                    }
                }
            }
        }
    }
}
MOTION
Frames: 5
Frame Time:   0.016667
 -0.250874  90.078600   0.802748  -0.972710   0.060429  -0.308426  -0.000089   1.016910  -0.377632   0.006523   2.033790  -0.755444   2.064050  -0.173243   0.000953   3.391080  -0.349372   7.125220  -2.384630  -0.173312   4.103890 -76.408800  16.039900   1.959310  -3.045510  -4.722640 -17.038100  15.461800   5.366870   7.720480  42.068900  34.466900 -71.567600 -25.630300  -0.003355   0.007563  -7.815140  -0.004374   0.003313 -33.428400   7.126510 -10.644300 -27.894300  -0.009987  -0.001603 -19.526000  -0.003425   0.003771 -29.567200   2.695950  -4.739480 -44.518200  -0.000481  -0.003342 -29.649100  -0.009735  -0.003733 -28.395100   2.597700  -4.793940 -36.113200  -0.008211  -0.007748 -24.051400  -0.001590  -0.007145 -34.261300   0.397453  -0.588672 -51.394900  -0.009806  -0.008246 -34.229000   0.005192  -0.005893   6.586560   1.470170   3.907780  74.261000   9.370230  -1.910440   1.116920  -4.051160  15.551100 -17.887600 -12.817500   5.839780 -36.498000  33.480600  68.941100  33.894100   0.001673  -0.001040  11.956400   0.009291  -0.002139  37.238600   3.747380   4.917950  30.599900   0.002117   0.000323  21.408100   0.007104   0.008981  29.060900  -2.529490  -4.519660  43.738000  -0.011241   0.000000  29.127400  -0.000323  -0.000074  30.634200  -2.652870  -4.448760  46.105900  -0.007465  -0.000119  30.690700   0.000000  -0.000066  45.689000  -3.708330  -3.612370  68.725100   0.013800  -0.000395  45.768400   0.002975   0.002533   0.604592   1.747390   1.918170   0.476326   0.143855  11.366200  -4.837640  -4.058170   5.191110   0.000000   0.000000   0.000000   1.582660   1.224920  -8.637910  -0.189254   1.233570  -5.903070  -9.408180   0.954349   1.200710  -0.000000   0.000000   0.000000
 -0.250858  90.078600   0.799811  -0.972870   0.048430  -0.315636   0.000179   1.023970  -0.377577   0.007116   2.047920  -0.755339   2.068170  -0.162033   0.000859   3.397830  -0.327170   7.112020  -2.384620  -0.175113   4.095120 -76.407400  16.041100   1.952490  -3.045160  -4.723520 -17.033500  15.481200   5.363350   7.729720  42.053000  34.452600 -71.549300 -25.639800  -0.003345   0.007567  -7.819990  -0.004370   0.003318 -33.434100   7.126630 -10.641200 -27.899000  -0.009986  -0.001591 -19.529600  -0.003424   0.003780 -29.571300   2.698950  -4.743940 -44.524600  -0.000466  -0.003339 -29.653400  -0.009736  -0.003733 -28.394600   2.600330  -4.798620 -36.124800  -0.008202  -0.007734 -24.059100  -0.001590  -0.007134 -34.267200   0.397491  -0.588742 -51.403800  -0.009808  -0.008238 -34.235000   0.005188  -0.005884   6.587060   1.465680   3.894690  74.255500   9.382600  -1.912140   1.123590  -4.059450  15.551400 -17.876000 -12.810800   5.839690 -36.508100  33.488800  68.944100  33.894100   0.001665  -0.001038  11.956400   0.009285  -0.002107  37.234200   3.747420   4.918020  30.596100   0.002123   0.000311  21.408100   0.007104   0.008975  29.060800  -2.529450  -4.520120  43.733900  -0.011234  -0.000034  29.127300  -0.000319  -0.000066  30.630400  -2.652850  -4.449270  46.100600  -0.007462  -0.000131  30.690500   0.000000  -0.000075  45.689100  -3.708330  -3.612370  68.721300   0.013792  -0.000414  45.767000   0.002964   0.002510   0.603488   1.734190   1.918290   0.477817   0.158622  11.373900  -4.835450  -4.046380   5.190580  -0.000000   0.000000  -0.000000   1.583840   1.235440  -8.638080  -0.191322   1.236170  -5.903030  -9.408370   0.950399   1.207170   0.000000   0.000000  -0.000000
 -0.250813  90.078600   0.794370  -0.973083   0.027286  -0.322846   0.001228   1.036620  -0.377478   0.009304   2.073220  -0.755165   2.074560  -0.143485   0.000729   3.408280  -0.290310   7.090810  -2.384490  -0.179063   4.086350 -76.404200  16.048800   1.938130  -3.045970  -4.729050 -17.025800  15.502000   5.352880   7.742170  42.038100  34.436000 -71.532600 -25.653400  -0.003322   0.007571  -7.826690  -0.004357   0.003323 -33.445900   7.127030 -10.638100 -27.908400  -0.009983  -0.001560 -19.535900  -0.003418   0.003804 -29.578100   2.706620  -4.756040 -44.535700  -0.000431  -0.003331 -29.660800  -0.009740  -0.003734 -28.393400   2.607280  -4.811140 -36.143400  -0.008177  -0.007705 -24.071500  -0.001588  -0.007108 -34.276400   0.397572  -0.588811 -51.417600  -0.009814  -0.008217 -34.244200   0.005178  -0.005864   6.587820   1.457360   3.881580  74.245000   9.401580  -1.916130   1.133370  -4.067750  15.551800 -17.859800 -12.804200   5.839630 -36.516600  33.500500  68.944300  33.894100   0.001641  -0.001022  11.956300   0.009276  -0.002043  37.227300   3.747520   4.918150  30.590100   0.002137   0.000285  21.408100   0.007103   0.008955  29.060600  -2.529390  -4.522590  43.728900  -0.011214  -0.000091  29.127100  -0.000314  -0.000059  30.624800  -2.652800  -4.451800  46.092600  -0.007453  -0.000161  30.690200   0.000000  -0.000097  45.689100  -3.708330  -3.612370  68.715000   0.013772  -0.000462  45.764200   0.002932   0.002449   0.602383   1.721000   1.918460   0.479283   0.173385  11.388200  -4.833400  -4.034460   5.187360   0.000000   0.000000  -0.000000   1.585890   1.251730  -8.638270  -0.195872   1.241900  -5.902990  -9.408570   0.943970   1.217970   0.000000   0.000000   0.000000
 -0.250742  90.078600   0.788788  -0.972522   0.008137  -0.320900   0.003373   1.048760  -0.377384   0.013663   2.097490  -0.755018   2.078440  -0.128692   0.000681   3.414630  -0.260658   7.074960  -2.384130  -0.184875   4.089850 -76.397300  16.082600   1.919450  -3.055090  -4.759210 -17.019000  15.505900   5.328550   7.745750  42.030900  34.440800 -71.556900 -25.660200  -0.003293   0.007571  -7.828900  -0.004335   0.003323 -33.461100   7.139970 -10.652100 -27.922000  -0.009974  -0.001512 -19.543500  -0.003408   0.003842 -29.585400   2.720030  -4.778060 -44.548200  -0.000377  -0.003319 -29.669100  -0.009750  -0.003729 -28.391500   2.619710  -4.833710 -36.160100  -0.008133  -0.007668 -24.082200  -0.001586  -0.007070 -34.283000   0.397685  -0.588657 -51.427900  -0.009825  -0.008184 -34.250800   0.005164  -0.005840   6.588590   1.446500   3.881540  74.233000   9.411660  -1.922570   1.137730  -4.058500  15.551200 -17.855200 -12.804800   5.839750 -36.519100  33.509500  68.936200  33.894100   0.001602  -0.000965  11.956300   0.009273  -0.001971  37.221900   3.747650   4.918340  30.585300   0.002153   0.000252  21.408000   0.007111   0.008918  29.060200  -2.529340  -4.528980  43.727900  -0.011182  -0.000136  29.127000  -0.000330  -0.000086  30.621300  -2.652760  -4.458200  46.087400  -0.007434  -0.000204  30.691400  -0.000037  -0.000129  45.688000  -3.712540  -3.616830  68.709800   0.013743  -0.000532  45.760900   0.002878   0.002352   0.602161   1.764780   1.918540   0.478173   0.145798  11.402600  -4.834130  -4.034440   5.176480   0.000000   0.000000   0.000000   1.587610   1.259920  -8.638210  -0.201726   1.251800  -5.910450  -9.408530   0.938002   1.226030  -0.000000   0.000000   0.000000
 -0.250651  90.078600   0.782728  -0.971292  -0.012735  -0.316804   0.006149   1.061560  -0.377293   0.019284   2.123060  -0.754890   2.082150  -0.114539   0.000668   3.420710  -0.232104   7.061140  -2.383730  -0.190499   4.093360 -76.386900  16.125200   1.899350  -3.067710  -4.797510 -17.015500  15.508300   5.311180   7.746120  42.025300  34.453400 -71.590900 -25.662900  -0.003253   0.007566  -7.829940  -0.004305   0.003323 -33.468700   7.156510 -10.671900 -27.931100  -0.009963  -0.001451 -19.548300  -0.003393   0.003893 -29.589400   2.733350  -4.800550 -44.556000  -0.000310  -0.003304 -29.674300  -0.009763  -0.003722 -28.390000   2.632140  -4.856700 -36.169700  -0.008077  -0.007619 -24.089000  -0.001583  -0.007022 -34.287300   0.397806  -0.588360 -51.434100  -0.009839  -0.008140 -34.255100   0.005147  -0.005809   6.589350   1.439490   3.881520  74.221200   9.423090  -1.928680   1.141040  -4.049310  15.547900 -17.852700 -12.807700   5.839890 -36.527200  33.513800  68.928600  33.894100   0.001549  -0.000900  11.956200   0.009270  -0.001883  37.219000   3.747790   4.918520  30.582600   0.002171   0.000210  21.407800   0.007125   0.008871  29.059800  -2.529310  -4.535790  43.727800  -0.011142  -0.000185  29.127000  -0.000360  -0.000134  30.619400  -2.652730  -4.465010  46.084900  -0.007412  -0.000258  30.693300  -0.000096  -0.000169  45.685900  -3.718720  -3.623350  68.705400   0.013707  -0.000619  45.757800   0.002811   0.002227   0.601940   1.808550   1.918620   0.477075   0.118214  11.418500  -4.835350  -4.034460   5.158600  -0.000000   0.000000   0.000000   1.589750   1.271030  -8.637680  -0.208576   1.258550  -5.927340  -9.408530   0.934512   1.235480   0.000000   0.000000   0.000000
